<?xml version="1.0" encoding="UTF-8"?>
<!DOCTYPE svg PUBLIC "-//W3C//DTD SVG 1.1//EN" "http://www.w3.org/Graphics/SVG/1.1/DTD/svg11.dtd">
<!-- Creator: CorelDRAW 2021 (64 Bit) -->
<svg xmlns="http://www.w3.org/2000/svg" xml:space="preserve" width="1000px" height="420px" version="1.1" style="shape-rendering:geometricPrecision; text-rendering:geometricPrecision; image-rendering:optimizeQuality; fill-rule:evenodd; clip-rule:evenodd"
viewBox="0 0 1000 420"
 xmlns:xlink="http://www.w3.org/1999/xlink"
 xmlns:xodm="http://www.corel.com/coreldraw/odm/2003">
 <defs>
  <style type="text/css">
   <![CDATA[
    .fil1 {fill:#33CC66}
    .fil0 {fill:black;fill-rule:nonzero}
   ]]>
  </style>
 </defs>
 <g id="Camada_x0020_1">
  <metadata id="CorelCorpID_0Corel-Layer"/>
  <g id="_2453118536000">
   <path class="fil0" d="M52.95 413.27c-2.9,0 -5.94,-0.24 -9.1,-0.73l-0.01 0.05c-3.09,-0.47 -6.04,-1.19 -8.83,-2.15l-0.12 -0.06c-3.04,-1.07 -5.92,-2.44 -8.64,-4.09 -2.78,-1.73 -5.29,-3.66 -7.49,-5.78l-0.06 -0.05c-2.3,-2.23 -4.36,-4.77 -6.16,-7.59 -1.74,-2.71 -3.18,-5.65 -4.3,-8.79 -1.05,-2.89 -1.82,-5.86 -2.3,-8.87 -0.51,-3.15 -0.77,-6.25 -0.77,-9.29 0,-3.84 0.3,-7.74 0.88,-11.65 0.58,-3.93 1.45,-7.78 2.57,-11.51 1.14,-3.74 2.52,-7.39 4.16,-10.9 1.62,-3.41 3.56,-6.92 5.83,-10.46 2,-3.13 4.09,-6.15 6.27,-9.04l0 -0.06c2.04,-2.71 4.35,-5.54 6.9,-8.44l0 -0.06c2.22,-2.52 4.78,-5.21 7.66,-8.04 2.71,-2.66 5.54,-5.26 8.44,-7.76 2.67,-2.3 5.41,-4.58 8.22,-6.84 2.96,-2.39 5.72,-4.56 8.26,-6.47 2.67,-2.01 5.47,-4.05 8.39,-6.11l5.36 -3.66c-4.61,-3.34 -8.32,-7.71 -11.08,-13.11 -1.24,-2.42 -2.26,-4.7 -3.03,-6.78 -0.85,-2.29 -1.56,-4.65 -2.11,-7.03 -0.54,-2.27 -0.95,-4.68 -1.24,-7.19 -0.3,-2.55 -0.45,-5.02 -0.45,-7.37l0.17 -4.82 0.39 -4.97c0.41,-3.53 0.81,-6.15 1.47,-9.65l0.79 -3.79 0.91 -3.65c0.63,-2.23 1.19,-4.12 1.93,-6.31l2.24 -6.19 2.42 -6.29 2.74 -6.64 9.28 -20.76c5.61,-12.06 11.26,-24.03 16.98,-36.04l0.06 0c1.23,-2.56 2.61,-4.91 4.13,-7.01 1.5,-2.07 3.28,-4.13 5.31,-6.13 1.67,-1.63 3.65,-3.31 5.94,-4.99 2.04,-1.56 4.27,-3.01 6.64,-4.35 2.2,-1.25 4.28,-2.33 6.19,-3.22 2.06,-0.92 4.1,-1.76 6.13,-2.46 2.47,-0.85 4.8,-1.49 6.94,-1.9 2.56,-0.5 4.98,-0.75 7.22,-0.75 16.03,0 25.43,6.26 28.17,18.79l4.77 -4.18c1.41,-1.24 2.87,-2.34 4.34,-3.3 1.59,-1.04 3.24,-1.92 4.88,-2.64 2.06,-0.89 4.08,-1.58 6.02,-1.99 2.3,-0.46 4.44,-0.71 6.43,-0.71 1.5,0 3.05,0.12 4.65,0.35 1.37,0.2 2.89,0.55 4.58,1.07 1.88,0.57 3.84,1.38 5.59,2.3 2.19,1.14 4.19,2.49 5.99,4l1.2 1.11c2.06,-2.75 4.7,-5.14 7.91,-7.19 1.56,-0.97 3.19,-1.82 4.85,-2.49 1.58,-0.61 3.27,-1.14 5.04,-1.54 1.31,-0.33 2.77,-0.58 4.33,-0.74 1.65,-0.2 3.14,-0.28 4.49,-0.28l2.55 0c4.72,-6.3 9.1,-14.68 14.19,-21.55l0.06 0c2.09,-2.66 4.17,-5.18 6.26,-7.54 2.22,-2.51 4.33,-4.74 6.3,-6.67 2.22,-2.18 4.43,-4.15 6.61,-5.92l0.06 -0.05c2.11,-1.7 4.37,-3.32 6.8,-4.84 4.36,-2.78 8.51,-4.95 12.42,-6.53 4.42,-1.79 8.71,-2.95 12.82,-3.46 3.27,0 8.8,-0.86 12.55,-1.04l51.92 0 -35.4 37.98 -2.47 2.77 -2.68 3.27 -3.14 4.02 0.04 0.02 -3.12 4.23 -3.67 5.31 3.22 0c2.04,0 4.16,0.2 6.31,0.6l0.06 0c2.37,0.44 4.54,1.1 6.47,1.98l-0.02 0.04c4.46,2.01 7.96,4.91 10.48,8.67 0.65,0.98 1.22,1.98 1.72,3.02l1.18 -0.98c3.75,-3.01 7.53,-5.64 11.34,-7.84 3.96,-2.3 7.98,-4.18 12.03,-5.63 2.39,-0.82 4.69,-1.48 6.91,-1.94 2.38,-0.5 4.78,-0.82 7.17,-0.94 2.49,-0.13 5.01,-0.03 7.52,0.28l0.01 -0.05c2.52,0.32 5.04,0.89 7.51,1.7 3.09,1 6.06,2.5 8.89,4.47 2.62,1.84 5.04,4.07 7.2,6.67 1.83,2.21 3.43,4.54 4.77,6.97l0 0.06c1.4,2.58 2.57,5.17 3.5,7.78l0 0.05c0.74,2.11 1.38,4.31 1.91,6.59 2.48,-5.69 4.87,-11.02 7.16,-16.01 2.84,-6.15 5.43,-11.65 7.77,-16.45l0.53 -0.97c1.24,-2.25 2.64,-4.43 4.21,-6.54l0 -0.06c1.49,-1.99 3.19,-3.94 5.1,-5.81 2,-1.96 4.1,-3.7 6.27,-5.19 2.26,-1.54 4.62,-2.86 7.06,-3.94 1.52,-0.67 3.37,-1.37 5.56,-2.1 1.91,-0.66 3.84,-1.19 5.73,-1.63 2.11,-0.47 4.11,-0.82 5.95,-1.04 2.1,-0.24 4.09,-0.37 5.93,-0.37 2.66,0 5.43,0.19 8.29,0.58 2.85,0.38 5.53,0.94 7.97,1.68l23.43 7.04c1.68,-0.5 3.35,-0.91 5,-1.22 2.9,-0.55 5.63,-0.83 8.21,-0.83 2.53,0 5.11,0.22 7.7,0.64 1.79,0.3 3.5,0.68 5.1,1.16l8.81 4.07 1.83 1.28c2.48,1.88 4.68,4.14 6.58,6.79 0.72,0.99 1.38,2.01 1.99,3.03l0.55 -0.42c2.18,-1.68 4.48,-3.3 6.85,-4.86 2.56,-1.69 5.08,-3.19 7.52,-4.47 2.45,-1.3 5,-2.44 7.62,-3.42 2.98,-1.12 5.81,-1.95 8.48,-2.48l0 0.05c3.13,-0.63 6.01,-0.94 8.63,-0.94 3.13,0 6.11,0.28 8.96,0.84l13.18 5.3 0.96 0.63c2.47,1.79 4.7,3.99 6.65,6.59 1.35,1.8 2.51,3.64 3.45,5.47l0 0.05c1.01,1.96 1.84,3.97 2.47,5.98 0.64,1.99 1.1,4.02 1.41,6.08 0.27,1.85 0.43,3.7 0.46,5.51l3.54 -6c1.95,-3.26 3.8,-6.26 5.53,-9l0 -0.06c1.81,-2.86 3.62,-5.63 5.43,-8.3 2.85,-4.33 5.53,-8.3 8.05,-11.87 2.75,-3.86 5.34,-7.34 7.79,-10.41 2.65,-3.33 5.25,-6.38 7.79,-9.12 2.75,-2.92 5.31,-5.43 7.67,-7.48 2.22,-1.93 4.5,-3.78 6.86,-5.55 2.51,-1.89 4.8,-3.47 6.83,-4.73 2.45,-1.52 4.93,-2.87 7.41,-4.02 2.4,-1.11 4.92,-2.07 7.54,-2.83l4.7 -1.34 0 -0.06 8.94 -2.19c21.29,-4.09 42.65,-7.95 63.96,-11.91 -13.74,17.11 -27.53,34.19 -41.21,51.34 4.35,0.65 8.35,1.83 11.99,3.53 6.55,3.05 11.75,7.7 15.58,13.9 1.39,2.24 2.57,4.52 3.55,6.79 0.96,2.26 1.79,4.67 2.46,7.25 1.27,4.86 1.91,9.81 1.91,14.85 0,2.58 -0.17,5.6 -0.5,9.03 -0.3,3.09 -0.74,6.23 -1.32,9.38 -0.5,2.71 -1.08,5.38 -1.73,7.98 1.34,-0.24 2.67,-0.36 3.99,-0.36 4.21,0 8.12,0.95 11.71,2.85 3.6,1.9 6.59,4.63 8.96,8.18l0.05 0c1.21,1.82 2.19,3.82 2.92,5.97 1.18,-2.42 2.66,-4.59 4.41,-6.47l0.06 -0.06c2.13,-2.26 4.57,-4.09 7.32,-5.46 0.14,0 1.73,-0.82 1.94,-0.93l4.6 -1.27 -1.24 -1.29c-1.54,-1.68 -2.98,-3.64 -4.29,-5.84 -1.21,-2.04 -2.29,-4.22 -3.22,-6.54l-0.06 -0.06c-0.65,-1.65 -1.3,-3.65 -1.93,-5.95 -0.63,-2.23 -1.1,-4.29 -1.38,-6.14 -0.28,-1.83 -0.46,-3.94 -0.52,-6.3l0 -0.06c-0.06,-2.17 0.02,-4.28 0.22,-6.29l0.48 -4.48 2.17 -3.99c1.56,-2.86 3.25,-5.58 5.05,-8.11 1.87,-2.65 3.87,-5.15 5.96,-7.48l0.05 0c2.3,-2.54 4.56,-4.81 6.76,-6.8 2.24,-2.02 4.76,-4.06 7.53,-6.11 2.61,-1.93 5.14,-3.68 7.55,-5.22l0.06 0c2.85,-1.82 5.46,-3.39 7.8,-4.67 2.6,-1.43 5.3,-2.8 8.07,-4.07 2.71,-1.25 5.51,-2.42 8.4,-3.51 2.61,-0.98 5.36,-1.91 8.24,-2.79l0 -0.05c2.63,-0.79 5.27,-1.49 7.91,-2.06 2.68,-0.59 5.37,-1.04 8.04,-1.35 2.79,-0.33 5.4,-0.49 7.81,-0.49 1.74,0 3.88,0.07 6.38,0.22 2.47,0.14 4.63,0.33 6.41,0.55 1.92,0.23 4.01,0.56 6.24,0.99 1.98,0.37 4.01,0.84 6.06,1.39 2.39,0.63 4.79,1.45 7.18,2.46l0.02 -0.05c2.08,0.87 4.32,2.04 6.7,3.48l0.02 -0.05c2.18,1.32 4.27,2.82 6.27,4.52 1.96,1.66 3.8,3.49 5.49,5.47 1.97,2.3 3.71,4.84 5.15,7.58 1.4,2.63 2.54,5.44 3.42,8.39l0 0.06c0.76,2.58 1.34,5.35 1.74,8.3 0.39,2.98 0.59,5.86 0.59,8.6 0,3.45 -0.3,7.09 -0.9,10.89 -0.58,3.75 -1.43,7.29 -2.51,10.58 -1.15,3.52 -2.57,6.88 -4.22,10.05l-0.06 0c-1.71,3.3 -3.64,6.41 -5.77,9.3 -1.81,2.47 -3.85,4.98 -6.1,7.52 -2.23,2.53 -4.48,4.85 -6.71,6.96 -2.39,2.25 -4.83,4.36 -7.29,6.3 -2.23,1.75 -4.9,3.65 -7.97,5.67l0 0.06 -2.17 1.4 0.94 1.42c1.52,2.34 2.84,4.78 3.92,7.28 0.92,2.13 1.72,4.2 2.37,6.17 0.6,1.85 1.17,3.93 1.67,6.21 0.53,2.39 0.9,4.55 1.13,6.46 0.26,2.29 0.39,4.45 0.39,6.45 0,4.51 -0.37,9.18 -1.12,14.01 -0.73,4.74 -1.8,9.27 -3.19,13.54 -1.42,4.35 -3.21,8.61 -5.36,12.77 -2.14,4.13 -4.62,8.11 -7.4,11.89 -2.69,3.65 -5.59,7.11 -8.68,10.34 -3.24,3.39 -6.56,6.46 -9.94,9.2 -3.57,2.84 -7.25,5.48 -11.05,7.85 -3.79,2.37 -7.85,4.58 -12.18,6.62 -4.23,2.01 -8.54,3.76 -12.91,5.26 -4.43,1.51 -8.89,2.77 -13.37,3.75 -4.36,0.95 -8.94,1.69 -13.72,2.2 -4.85,0.51 -9.57,0.77 -14.11,0.77 -4.12,0 -8.3,-0.29 -12.52,-0.86 -4.14,-0.56 -8.1,-1.4 -11.87,-2.51 -3.93,-1.16 -7.74,-2.67 -11.4,-4.51 -3.76,-1.88 -7.19,-4.02 -10.27,-6.38 -3.62,-2.78 -6.82,-5.97 -9.6,-9.54 -2.77,-3.59 -5.05,-7.46 -6.82,-11.57l0 -0.06c-1.67,-3.9 -2.92,-8.07 -3.75,-12.49 -0.81,-4.38 -1.23,-8.84 -1.23,-13.39l0 -0.06c-3.23,2.4 -6.43,4.66 -9.57,6.73 -3.36,2.23 -6.98,4.4 -10.84,6.5 -3.81,2.07 -7.65,3.96 -11.5,5.65 -3.7,1.61 -7.72,3.18 -12.03,4.67 -4.21,1.49 -8.43,2.78 -12.65,3.89l-0.27 0.09c-2.67,0.67 -5.81,1.32 -9.36,1.96l0 0.06c-2.84,0.5 -6.07,0.97 -9.66,1.38 -3.11,0.36 -6.44,0.64 -9.98,0.83l-0.41 0.02 -10.59 0.22c-5.64,-0.17 -10.59,-0.31 -16.18,-0.91 -1.35,-0.09 -3.01,-0.32 -4.93,-0.67l-0.01 0.06 -1.67 -0.35 -0.28 0.66c-1.59,3.78 -3.4,8.24 -5.42,13.4 -2.76,7.02 -5.13,13.39 -7.09,19.05 -1.95,5.63 -3.94,11.85 -5.95,18.58l-10.88 36.78 -9.44 33.16c-0.41,1.56 -0.9,2.99 -1.48,4.26l-0.06 0.12c-0.7,1.53 -1.56,3 -2.57,4.38 -1.98,2.64 -4.34,4.81 -7.08,6.43 -2.77,1.68 -5.86,2.72 -9.21,3.11 -2.72,0.31 -5.44,0.13 -8.15,-0.53 -2.56,-0.62 -4.94,-1.62 -7.13,-2.98 -1.47,-0.88 -2.88,-2 -4.26,-3.3l-0.06 -0.11c-1.24,-1.2 -2.34,-2.4 -3.26,-3.6 -1.2,-1.56 -2.26,-3.15 -3.16,-4.75 -0.85,-1.54 -1.68,-3.23 -2.45,-5.08l0 -0.06c-0.76,-1.85 -1.36,-3.42 -1.79,-4.75l0 -0.06c-0.44,-1.35 -0.94,-3.07 -1.48,-5.12 -0.48,-1.84 -0.91,-3.75 -1.28,-5.72 -0.4,-2.03 -0.71,-3.98 -0.93,-5.85 -0.2,-1.72 -0.38,-3.73 -0.51,-6.01 -0.13,-2.39 -0.21,-4.41 -0.21,-6.02 0,-3.36 0.21,-6.72 0.61,-10.04l0 -0.06c0.17,-1.42 0.43,-3.01 0.76,-4.76l0.97 -4.28c0.71,-3.08 1.67,-6.81 2.85,-11.12 1.16,-4.23 2.32,-8.18 3.45,-11.83 1.34,-4.36 2.69,-8.49 4.02,-12.39 1.51,-4.44 3.03,-8.73 4.54,-12.81l4.95 -13.01 5.85 -14.81c-2.12,0.27 -4.2,0.4 -6.24,0.4 -2.67,0 -5.43,-0.26 -8.26,-0.77 -2.95,-0.54 -5.65,-1.32 -8.07,-2.33 -3,-1.25 -5.74,-2.84 -8.18,-4.77 -2.43,-1.92 -4.63,-4.23 -6.57,-6.91 -1.46,-2.03 -2.71,-4.11 -3.72,-6.22 -1.08,-2.23 -1.95,-4.51 -2.6,-6.78l0 -0.06c-0.58,-2.05 -1.04,-4.29 -1.36,-6.7l-0.2 -1.78c-0.84,1.18 -1.78,2.36 -2.66,3.53 -0.9,1.14 -1.78,2.18 -2.61,3.1 -1.71,1.9 -3.65,3.63 -5.79,5.15 -2.14,1.53 -4.43,2.8 -6.81,3.79 -2.26,0.94 -4.64,1.66 -7.09,2.13 -2.46,0.47 -4.91,0.71 -7.32,0.71l-1.28 0c-1.28,0 -2.85,-0.15 -4.64,-0.43 -1.48,-0.23 -2.95,-0.56 -4.38,-0.98 -1.44,-0.41 -2.73,-0.86 -3.82,-1.31 -1.49,-0.64 -2.66,-1.18 -3.52,-1.64l0 -0.06c-2.96,-1.58 -5.51,-3.56 -7.62,-5.93l0 -0.06c-2.11,-2.38 -3.78,-5.06 -5.02,-8.03 -0.9,-2.15 -1.57,-4.42 -1.99,-6.79 -0.38,-2.18 -0.58,-4.44 -0.58,-6.77l0.01 -0.73 -5.53 7.62c-3.15,4.53 -6.07,8.89 -9.11,13.49l-3.43 5.69c-1.06,1.83 -2,3.52 -2.79,5.05 -0.72,1.48 -1.55,2.9 -2.45,4.25l0.04 0.02c-1.02,1.52 -2.25,3 -3.62,4.39 -1.81,1.84 -3.89,3.42 -6.2,4.72l0 0.06c-1.16,0.65 -2.36,1.22 -3.61,1.69 -0.25,1.8 -0.53,3.21 -0.89,4.99 -0.37,1.48 -0.87,2.95 -1.49,4.4 -0.59,1.4 -1.36,2.81 -2.3,4.24 -1.53,2.32 -3.3,4.27 -5.27,5.84 -1.39,1.1 -2.89,2.04 -4.48,2.82l-0.79 1.86 -0.64 -1.22c-3.24,1.24 -6.56,2.37 -9.82,3.53l-7.16 -3.38c-2.3,0.69 -4.59,1.55 -6.84,2.39 -3.45,1.41 -6.85,2.89 -10.26,4.39l0 0.06c-7.26,3.46 -13.81,6.96 -20.79,10.89 -4.63,2.71 -8.45,4.77 -12.59,8.04l-2.57 0.9c0.05,0.01 0.14,0 0.03,0.06l-3.27 1.71 -3.86 0.46c-3.11,0.38 -6.23,0.17 -9.34,-0.6 -2.88,-0.71 -5.68,-1.92 -8.35,-3.6l-0.97 -0.61 -7.11 -6.24c-0.9,-1.09 -1.82,-2.17 -2.67,-3.3 -1.24,-1.67 -2.26,-3.38 -3.07,-5.14 -0.93,-2.03 -1.59,-4.13 -1.96,-6.28l-2.16 -12.42 9.57 -8.36 3.8 -3.66c2.16,-2.39 3.96,-4.66 5.97,-7.22l1.71 -2.36c2.23,-3.27 4.36,-6.55 6.5,-9.87l2.7 -4.45c3.01,-5.15 5.94,-10.3 8.85,-15.51 2.08,-3.9 3.96,-7.62 5.92,-11.58l0.06 0 2.92 -6.11 1.13 -2.53c-2.82,0.38 -5.62,0.31 -8.37,-0.21 -2.88,-0.56 -5.64,-1.57 -8.26,-3.01 -1.6,-0.88 -3.25,-2.01 -4.91,-3.38 -1.3,-1.07 -2.66,-2.36 -4.05,-3.87 -1.13,-1.14 -2.26,-2.52 -3.4,-4.07 -1.03,-1.35 -1.98,-2.86 -2.86,-4.44 -0.95,-1.7 -1.73,-3.36 -2.35,-4.93 -0.58,-1.49 -1.12,-3.2 -1.58,-5.13l-1.06 -4.34 0.69 -4.43c0.39,-2.44 0.93,-4.86 1.61,-7.24l0.53 -1.89 -2.82 0.13 -29.83 0 -5.72 10.31 -4.96 9.22 -5.22 10.14 0.05 0.02 -5.86 11.77 -6.98 14.3 -2.46 5.53 -1.65 4.05 3.68 -3.58 4.17 -4.2 4.18 -4.37 12.03 -13.18c2.73,-3.2 5.3,-6.86 8.09,-9.83 0.83,-0.84 1.68,-1.62 2.55,-2.31 0.83,-0.68 1.84,-1.37 2.94,-2.04l0 -0.06c1.82,-1.09 3.81,-1.96 5.98,-2.58 2.27,-0.67 4.49,-1.01 6.64,-1.01 3.91,0 7.61,0.86 11.08,2.57 3.49,1.7 6.45,4.18 8.86,7.38 1.78,2.37 3.12,4.99 3.98,7.81l0 0.06c0.82,2.69 1.25,5.44 1.25,8.2 0,3.58 -0.65,7.06 -1.95,10.41 -1.29,3.32 -3.16,6.31 -5.58,8.93 -5.71,6.97 -13.27,15.35 -18.51,22.38 -4.18,4.8 -8.58,9.5 -13.17,14.1 -4.88,4.83 -9.72,9.37 -14.54,13.61l-0.06 0.06c-3.26,2.84 -6.84,5.44 -10.72,7.77 -3.87,2.31 -7.82,4.22 -11.85,5.69 -4.08,1.5 -8.32,2.63 -12.7,3.38 -4.38,0.75 -8.82,1.13 -13.3,1.13 -5.78,0 -11.22,-0.92 -16.31,-2.74 -5.16,-1.84 -9.92,-4.65 -14.22,-8.38 -2.7,-2.33 -5.01,-4.97 -6.9,-7.86l-1.05 -1.76c-4.12,3.09 -8.33,6.08 -12.59,8.95 -3.28,2.2 -6.49,4.26 -9.63,6.18l-8.15 18.56c-3.87,8.45 -7.73,16.74 -11.73,25.13 -2.3,4.81 -4.42,9.09 -6.32,12.77 -2.28,4.43 -4.42,8.43 -6.41,11.96 -1.7,3.05 -3.95,6.87 -6.67,11.35l0 0.06c-2,3.28 -4.36,6.98 -7.06,11.09 -2.62,3.98 -5.21,7.62 -7.74,10.91 -2.75,3.58 -5.51,6.89 -8.24,9.9 -2.87,3.16 -5.84,6.17 -8.9,8.99 -3.06,2.84 -6.18,5.46 -9.34,7.84 -7.22,5.47 -14.84,9.59 -22.85,12.35 -8.11,2.79 -16.55,4.19 -25.3,4.19zm840.19 -222.91l-16.02 0.97 -1.53 0.82c-3.2,1.6 -6.58,2.57 -10.12,2.91l-2.52 0.13 -6.85 6.83 -1.75 1.9 -2.02 2.44 0.05 0.03c-1.75,2.45 -3.3,4.7 -4.95,7.21 -0.32,0.53 -0.7,1.27 -1.1,2.22 -0.33,0.77 -0.63,1.6 -0.86,2.49l-0.06 0c-0.23,0.83 -0.41,1.74 -0.53,2.71l0.04 0.01c-0.13,1.03 -0.19,2.15 -0.19,3.35 0,1.78 0.08,3.34 0.24,4.65 0.14,1.13 0.3,2.02 0.48,2.62 0.41,0.13 0.97,0.25 1.66,0.34 0.77,0.11 1.86,0.16 3.22,0.16 1.32,0 2.75,-0.23 4.28,-0.69 2,-0.6 4.1,-1.51 6.29,-2.72 1.28,-0.71 2.66,-1.56 4.14,-2.54l0.06 0c1.13,-0.73 2.52,-1.74 4.14,-2.98 1.52,-1.16 2.87,-2.26 4.03,-3.28l0 -0.06c1.31,-1.15 2.69,-2.46 4.12,-3.89l0.06 0c1.31,-1.3 2.55,-2.62 3.68,-3.93 1.17,-1.35 2.29,-2.74 3.32,-4.13 1.01,-1.37 1.98,-2.79 2.9,-4.26 0.96,-1.54 1.81,-3.01 2.52,-4.36 0.56,-1.08 1.14,-2.34 1.69,-3.76l0.06 -0.05c0.42,-1.05 0.8,-2.23 1.14,-3.52l0.38 -1.62zm4.59 -73.02l0.69 -0.32c1.71,-0.88 3.42,-1.81 5.09,-2.77 1.22,-0.7 2.83,-1.7 4.83,-2.98 1.75,-1.13 3.39,-2.23 4.88,-3.28 2.71,-1.93 5.14,-3.95 7.24,-6.05 2.07,-2.06 3.84,-4.17 5.28,-6.3 0.45,-0.66 0.89,-1.45 1.33,-2.35 0.41,-0.85 0.72,-1.6 0.91,-2.22 0.17,-0.58 0.32,-1.25 0.44,-2 -0.71,0.1 -1.39,0.24 -2.04,0.44 -1.48,0.45 -3.08,1.22 -4.81,2.3 -1.53,0.96 -2.77,1.77 -3.7,2.44l-3.47 2.67c-0.87,0.72 -1.97,1.72 -3.24,2.94 -1.32,1.26 -2.39,2.33 -3.18,3.19 0,0.26 -3.06,3.35 -3.06,3.6 -1.04,1.25 -1.91,2.36 -2.62,3.33l-2.17 3.12 -2.4 4.24zm-2.3 5.15l-0.02 0.12 0.02 -0.12zm-49.78 109.77l0.01 0.05 -0.01 -0.05zm-427.6 32.82c0.05,-0.01 0.19,-0.04 0.08,-0.02l-0.08 0.02z"/>
   <path class="fil1" d="M52.95 387.34c-4.81,0 -9.18,-0.67 -13.05,-2 -4.16,-1.47 -7.74,-3.63 -10.72,-6.51 -3.03,-2.94 -5.31,-6.5 -6.81,-10.67 -1.42,-3.93 -2.13,-8.29 -2.13,-13.1 0,-6.35 0.94,-12.63 2.81,-18.8 1.79,-6.01 4.54,-11.89 8.22,-17.65 3.54,-5.54 7.48,-10.79 11.82,-15.71 4.34,-4.94 9.21,-9.72 14.57,-14.33 5.22,-4.49 10.48,-8.74 15.77,-12.73 5.18,-3.91 10.64,-7.76 16.35,-11.51 5.81,-3.83 11.03,-7.18 15.61,-10.03 4.91,-3.07 9.65,-5.92 14.18,-8.55 4.53,-2.63 8.21,-4.85 11.03,-6.64 2.26,-1.44 4.17,-2.73 5.72,-3.85l5.22 -9.66c-2.63,2.69 -5.26,5.2 -7.89,7.54 -4.91,4.34 -9.77,7.63 -14.58,9.84 -5.17,2.39 -10.3,3.59 -15.35,3.59 -11.3,0 -19.07,-4.15 -23.33,-12.44 -1.72,-3.37 -3.01,-6.84 -3.84,-10.4 -0.85,-3.59 -1.27,-7.32 -1.27,-11.15 0,-2.64 0.14,-5.42 0.43,-8.31 0.27,-2.75 0.69,-5.46 1.23,-8.12 0.52,-2.53 1.04,-4.77 1.53,-6.67 0.54,-2.07 1.07,-3.8 1.57,-5.14 1.36,-3.91 2.84,-7.85 4.43,-11.83 1.65,-4.1 3.51,-8.47 5.56,-13.09 4.21,-9.46 8.28,-18.34 12.22,-26.62l10.87 -22.85c1.55,-3.21 3.69,-6.19 6.44,-8.9 2.61,-2.56 5.76,-4.89 9.45,-6.99 3.49,-1.97 6.76,-3.5 9.8,-4.55 3.4,-1.18 6.5,-1.78 9.27,-1.78 9.28,0 13.94,4.08 13.94,12.23 0,2.05 -0.5,4.36 -1.5,6.9 -0.76,1.95 -1.89,4.17 -3.36,6.64l-4.19 7.55 -5.95 11.03 -7.06 13.37 -7.6 14.69c-5.07,9.84 -9.77,19.55 -14.11,29.09l-0.03 0.05c-4.64,10.07 -6.97,18.99 -6.97,26.72 0,1.89 0.18,3.42 0.52,4.58l0.17 -0.08c1.08,-0.47 2.32,-1.19 3.72,-2.15 1.39,-0.97 3.04,-2.4 4.91,-4.27 1.98,-1.95 4.08,-4.32 6.33,-7.09l0.23 -0.29c1.1,-1.22 2.64,-3.06 4.59,-5.47 1.99,-2.45 4.26,-5.32 6.79,-8.6 2.36,-3.07 5.07,-6.73 8.1,-10.96 2.89,-4.03 5.86,-8.29 8.88,-12.75 3.15,-4.67 6.16,-9.34 9,-14 2.84,-4.68 5.7,-9.64 8.56,-14.85 2.75,-5.02 5.23,-9.95 7.41,-14.77 2.19,-4.83 4.11,-9.57 5.74,-14.18l3.02 -11.06 1.69 -1.48c1.71,-1.5 3.51,-2.67 5.33,-3.46 2.12,-0.95 4.27,-1.41 6.45,-1.41 1.68,0 3.31,0.23 4.87,0.71l2.73 1.1 0.27 0.14c2.27,1.19 4.3,2.91 6.09,5.13l2.8 3.61c0.93,1.24 1.57,2.21 1.89,2.84l1.31 2.58 -0.78 2.81c-2.29,8.3 -4.89,16.94 -7.77,25.89 -2.9,8.99 -6.06,18.18 -9.47,27.56 -3.48,9.58 -7.44,19.65 -11.85,30.19l-3.6 8.47 4.32 -3.6c3.53,-3.05 6.67,-5.86 9.39,-8.4 2.57,-2.4 4.64,-4.46 6.21,-6.15l8.17 -9.21 3.69 -4.46 3.6 -4.76c1.38,-3.47 2.89,-7.09 4.51,-10.84 3.55,-8.16 7.66,-17 12.31,-26.48 2.94,-5.99 6.08,-12.21 9.43,-18.65l-3.76 0c-2.81,0 -5.18,-0.53 -7.11,-1.58 -3.42,-1.87 -5.12,-4.72 -5.12,-8.51 0,-3.6 1.96,-6.63 5.85,-9.1 1.52,-0.98 3.26,-1.69 5.18,-2.12 1.7,-0.4 3.53,-0.59 5.47,-0.59l11.08 0 4.35 -7.32 5.3 -8.59c1.45,-2.28 2.88,-4.44 4.25,-6.44 1.27,-1.84 2.49,-3.52 3.65,-5.02 3.85,-4.92 7.62,-9.17 11.27,-12.74 3.76,-3.68 7.41,-6.64 10.91,-8.83 7.08,-4.45 13.45,-7.03 19.09,-7.73l6.16 -0.68c1.86,-0.15 3.39,-0.24 4.56,-0.24l17.31 0 -11.8 12.66c-1.85,1.99 -3.83,4.3 -5.92,6.92 -2.29,2.9 -4.53,5.87 -6.69,8.92 -2.05,2.91 -4.38,6.3 -7.01,10.24 -2.61,3.95 -4.9,7.47 -6.83,10.56 -1.76,2.79 -3.44,5.56 -5.05,8.29l30.69 0c2.59,0 4.8,0.41 6.6,1.23 3.74,1.67 5.63,4.48 5.63,8.44 0,2.29 -0.78,4.4 -2.32,6.34 -1.02,1.26 -2.35,2.38 -3.98,3.34 -1.58,0.92 -3.31,1.59 -5.19,2 -1.76,0.36 -3.57,0.55 -5.44,0.55l-38.65 0 -10.02 18.08c-3.36,6.04 -6.86,12.7 -10.49,19.98l-5.92 11.88 -6.98 14.3c-2,4.44 -3.68,8.4 -5.02,11.87 -1.37,3.55 -2.49,6.81 -3.37,9.76 -0.82,2.79 -1.45,5.4 -1.88,7.82 -0.38,2.17 -0.57,4.13 -0.57,5.85 0,1.99 0.18,3.6 0.53,4.78 0.2,0.73 0.43,1.19 0.65,1.41 0.47,0.44 0.9,0.75 1.3,0.91 0.49,0.19 1.14,0.29 1.93,0.29 1.02,0 2.19,-0.18 3.49,-0.56 1.52,-0.43 3.23,-1.12 5.1,-2.05 2.77,-1.36 5.56,-3.07 8.32,-5.08 2.88,-2.12 5.76,-4.55 8.62,-7.28 3.08,-2.93 6.07,-5.89 8.95,-8.85 2.88,-2.94 5.75,-5.98 8.59,-9.11l8.09 -8.91c2.46,-2.77 4.73,-5.56 6.77,-8.36l0.73 -0.88c0.89,-0.89 1.77,-1.6 2.61,-2.11 1.56,-0.94 3.17,-1.41 4.85,-1.41 3.33,0 5.99,1.3 7.93,3.89 1.44,1.91 2.17,4.28 2.17,7.06 0,3.59 -1.19,6.65 -3.57,9.2l-9.07 11.06 -9.69 11.56c-7.88,9.06 -16.67,17.83 -26.3,26.3 -5.44,4.75 -11.39,8.32 -17.86,10.7 -6.46,2.37 -13.41,3.56 -20.82,3.56 -8.11,0 -15.01,-2.47 -20.7,-7.4 -3.16,-2.74 -5.51,-6.34 -7.01,-10.73 -1.34,-3.93 -2.01,-8.51 -2.01,-13.72l0 -0.57c-4.66,4.34 -10.09,8.87 -16.27,13.58 -9.06,6.9 -17.93,12.86 -26.6,17.88 -3.46,8.13 -6.79,15.73 -9.97,22.8 -3.51,7.79 -7.38,16.08 -11.56,24.84 -4.07,8.51 -8.18,16.47 -12.31,23.85 -4.15,7.41 -8.54,14.62 -13.15,21.61 -4.61,7 -9.47,13.31 -14.57,18.93 -5.2,5.74 -10.6,10.73 -16.17,14.95 -11.87,8.98 -24.91,13.47 -39.09,13.47zm795.57 -126.86c-7.31,0 -14.03,-0.91 -20.16,-2.72 -6.29,-1.86 -11.89,-4.67 -16.77,-8.42 -5.2,-3.99 -9.11,-9.04 -11.72,-15.11 -2.49,-5.81 -3.73,-12.48 -3.73,-19.98 0,-5.64 0.94,-11.09 2.82,-16.33 1.84,-5.13 4.6,-10 8.26,-14.58 3.87,-4.84 8.59,-8.59 14.13,-11.21 5.38,-2.54 11.53,-4.04 18.41,-4.45l15.62 -0.95c-1.29,-0.98 -2.45,-2.24 -3.49,-3.77 -1.39,-2.07 -2.46,-4.16 -3.19,-6.27 -0.8,-2.32 -1.21,-4.59 -1.21,-6.83 0,-2.35 0.39,-4.43 1.17,-6.23 1.1,-2.53 2.84,-4.39 5.21,-5.57l0.65 -0.32 9.87 -2.73 11.01 -3.36c3.97,-1.25 7.91,-2.63 11.78,-4.12 4.01,-1.55 8.06,-3.27 12.12,-5.12 4.03,-1.84 7.94,-3.85 11.68,-6 3.7,-2.13 7.35,-4.48 10.95,-7.03 6.76,-4.79 12.18,-10.19 16.23,-16.17 1.86,-2.75 3.27,-5.64 4.19,-8.64 0.9,-2.97 1.36,-6.17 1.36,-9.58 0,-1.98 -0.23,-3.73 -0.69,-5.24 -0.49,-1.53 -1.16,-2.91 -2.03,-4.12 -0.45,-0.63 -1.33,-1.18 -2.6,-1.63 -1.91,-0.67 -4.5,-1.01 -7.76,-1.01 -5.81,0 -11.48,1.73 -17.01,5.19 -3.15,1.96 -6.09,4.08 -8.81,6.35 -2.73,2.26 -5.37,4.79 -7.9,7.54 -2.52,2.75 -4.78,5.48 -6.74,8.16 -1.92,2.63 -3.6,5.26 -5,7.85 -1.43,2.66 -2.54,4.98 -3.33,6.99 -0.7,1.77 -1.13,3.19 -1.28,4.23l-1.08 7.67 -7.6 -1.28c-3.13,-0.53 -5.91,-2.1 -8.29,-4.73 -1.82,-1.97 -3.38,-4.6 -4.68,-7.85 -1.17,-2.95 -1.98,-5.89 -2.43,-8.79 -0.47,-3.02 -0.54,-5.99 -0.25,-8.88l0.16 -1.5 0.72 -1.33c2.47,-4.51 5.48,-8.76 9.01,-12.7 3.54,-3.91 7.58,-7.55 12.11,-10.9 4.41,-3.27 8.99,-6.2 13.7,-8.78 4.67,-2.57 9.52,-4.81 14.53,-6.69 5.03,-1.89 9.71,-3.32 14.03,-4.26 4.54,-0.99 8.77,-1.49 12.67,-1.49 3.75,0 7.42,0.22 10.96,0.65 3.54,0.43 6.98,1.09 10.3,1.97 3.63,0.96 6.95,2.37 9.98,4.2 3.08,1.86 5.78,4.15 8.11,6.87 2.49,2.91 4.35,6.41 5.57,10.5 1.11,3.76 1.68,7.99 1.68,12.65 0,5.85 -0.88,11.46 -2.65,16.82 -1.74,5.31 -4.38,10.36 -7.87,15.11 -3.29,4.48 -6.96,8.63 -10.99,12.43 -3.98,3.74 -8.38,7.21 -13.19,10.38 -6.53,4.29 -12.96,7.87 -19.28,10.72l0.56 0.34c3.68,2.34 6.85,4.96 9.49,7.85 2.71,2.98 4.85,6.25 6.38,9.79 1.39,3.2 2.45,6.41 3.16,9.61 0.74,3.33 1.11,6.56 1.11,9.67 0,7.99 -1.19,15.64 -3.55,22.9 -2.36,7.24 -5.89,14.06 -10.58,20.43 -4.6,6.24 -9.93,11.82 -15.97,16.71 -5.98,4.87 -12.71,9.06 -20.16,12.59 -7.41,3.51 -15.1,6.14 -23.05,7.88 -7.94,1.75 -16.17,2.62 -24.65,2.62zm9.31 -92.27l-12.33 12.3c-1.71,1.71 -3.44,3.72 -5.19,6.02 -1.91,2.56 -3.81,5.34 -5.66,8.33 -1.63,2.64 -2.88,5.53 -3.73,8.65 -0.84,3.11 -1.27,6.45 -1.27,10.01 0,4.72 0.49,8.65 1.46,11.76 0.82,2.66 1.99,4.72 3.48,6.19 1.6,1.55 3.61,2.74 6,3.55 2.69,0.9 5.94,1.35 9.74,1.35 5.48,0 11.44,-1.79 17.87,-5.36 3.44,-1.91 6.85,-4.15 10.17,-6.69 3.26,-2.49 6.49,-5.34 9.67,-8.53 3.13,-3.1 5.96,-6.37 8.48,-9.77 2.53,-3.42 4.75,-6.97 6.66,-10.62 1.82,-3.48 3.2,-6.98 4.12,-10.45 0.88,-3.28 1.32,-6.55 1.32,-9.77 0,-2.68 -0.25,-5.03 -0.76,-7.02 -0.5,-1.89 -1.21,-3.55 -2.13,-4.95 -0.52,-0.79 -1.37,-1.42 -2.54,-1.89 -1.69,-0.68 -4.01,-1.03 -6.93,-1.03 -2.42,0 -6.16,0.5 -11.21,1.49 -4.87,0.94 -10.24,2.94 -16.08,5.98l-0.09 0.06c-3.22,1.6 -6.43,1.91 -9.62,0.92l-1.43 -0.53zm-446.05 42.49c6.03,-11.21 11.57,-22.26 16.59,-33.12 4.98,-10.78 9.49,-21.41 13.5,-31.9 4.01,-10.49 8.42,-21.25 13.21,-32.27 4.82,-11.06 9.82,-21.92 15,-32.56l0.17 -0.32c1.9,-3.46 4.13,-6.45 6.66,-8.93 2.66,-2.61 5.62,-4.64 8.85,-6.06 2.82,-1.25 5.67,-2.2 8.53,-2.85 2.94,-0.67 5.81,-1 8.58,-1 4.4,0 8.4,0.54 11.96,1.6l8.09 2.43 -3.32 7.73c-0.56,1.3 -1.45,3.03 -2.65,5.16l-4.46 7.54c-1.75,2.87 -3.55,5.91 -5.38,9.13l-4.27 7.67c2.79,-2.88 5.61,-5.69 8.47,-8.43 3.71,-3.56 7.4,-6.82 11.05,-9.76 3.69,-2.98 7.37,-5.65 11,-8 3.85,-2.48 7.6,-4.39 11.23,-5.7 3.93,-1.41 7.65,-2.12 11.18,-2.12 3.75,0 7.04,0.54 9.87,1.62 3.35,1.28 6,3.29 7.97,6.02 1.52,2.1 2.67,4.45 3.46,7.03 0.78,2.5 1.16,5.11 1.16,7.8 0,3.07 -0.53,6.32 -1.58,9.72l2.34 -2.41c4.18,-4.25 8.28,-8.07 12.28,-11.46 4.04,-3.4 8.11,-6.46 12.21,-9.16 4.26,-2.82 8.29,-4.94 12.08,-6.37 4.18,-1.57 8.15,-2.36 11.87,-2.36 3.69,0 6.95,0.51 9.76,1.54 3.35,1.21 6.01,3.13 7.98,5.75 1.6,2.14 2.8,4.46 3.58,6.96 0.77,2.46 1.15,5.06 1.15,7.79 0,6.5 -2.04,13.98 -6.1,22.43 -1.87,3.9 -3.96,7.83 -6.26,11.76 -2.35,4.01 -4.86,7.96 -7.52,11.85l-15.39 22.25c-2.31,3.26 -4.46,6.51 -6.46,9.7 -1.78,2.8 -3.38,5.57 -4.8,8.27 -1.76,3.51 -3.09,6.65 -3.98,9.38 -0.57,1.75 -0.92,3.24 -1.05,4.46l0.51 -0.15c1.14,-0.38 2.39,-1 3.74,-1.82l0.7 -0.39c2.9,-1.38 5.79,-3.09 8.65,-5.09 2.84,-1.98 5.74,-4.35 8.67,-7.08 3.01,-2.81 5.92,-5.7 8.71,-8.66 2.76,-2.93 5.47,-6 8.1,-9.19l4.57 -5.32 8.88 -9.84 2.07 -2.42c0.87,-1.23 1.92,-2.22 3.13,-2.95l1.21 -2.27c4.29,-8.33 8.43,-16.13 12.4,-23.37 4.13,-7.5 8.03,-14.34 11.72,-20.51 3.64,-6.08 7.17,-11.64 10.55,-16.65 5.42,-8.36 10.47,-15.47 15.13,-21.34 4.86,-6.11 9.37,-10.98 13.52,-14.6 4.11,-3.57 8.05,-6.53 11.8,-8.86 3.92,-2.43 7.7,-4.19 11.3,-5.24 3.04,-0.9 5.92,-1.68 8.58,-2.34 2.68,-0.66 5.27,-1.23 7.75,-1.69l19.9 -3.69 -12.69 15.8c-8.54,10.64 -16.93,21.79 -25.14,33.42 -3.26,4.62 -6.49,9.31 -9.69,14.07 2.29,-2.15 4.57,-4.19 6.84,-6.11 5.06,-4.28 9.8,-7.55 14.22,-9.77 4.96,-2.51 9.59,-3.76 13.89,-3.76 11.02,0 18.77,3.62 23.24,10.84 1.89,3.08 3.31,6.39 4.24,9.92 0.92,3.52 1.38,7.21 1.38,11.09 0,4.92 -0.51,10.16 -1.53,15.7 -0.99,5.36 -2.47,10.96 -4.42,16.76 -1.93,5.71 -4.27,11.49 -6.99,17.33 -2.68,5.7 -5.77,11.5 -9.26,17.37 -3.46,5.89 -7.25,11.53 -11.32,16.93 -2.58,3.39 -5.23,6.69 -7.99,9.87 2.12,-1.42 4.25,-2.95 6.38,-4.59 3.76,-2.89 7.73,-6.31 11.89,-10.22 4.19,-3.96 8.58,-8.44 13.16,-13.43l0.2 -0.23c1.65,-1.65 3.18,-3.24 4.56,-4.74 1.55,-1.69 3.11,-3.45 4.66,-5.27l4.35 -5.28c1.28,-1.62 2.49,-3.19 3.59,-4.7l0.39 -0.53 0.37 -0.38c0.78,-0.78 1.66,-1.47 2.63,-2.06 1.54,-0.96 3.16,-1.43 4.84,-1.43 3.55,0 6.27,1.44 8.18,4.32 1.27,1.9 1.91,4.26 1.91,7.05 0,1.79 -0.33,3.51 -0.99,5.15 -0.63,1.57 -1.53,2.97 -2.67,4.18l-4.43 5.52 -5.5 6.52 -11.17 12.88c-5.11,5.26 -10.52,10.25 -16.21,14.98 -5.63,4.69 -11.52,9.07 -17.66,13.14 -6.27,4.15 -12.96,7.79 -20.05,10.91 -7.11,3.11 -14.61,5.71 -22.5,7.79l-0.09 0.03c-5.43,1.36 -11.14,2.38 -17.08,3.06 -5.96,0.68 -12.11,1.02 -18.45,1.02l-8.06 -0.25 -4 -0.26 -3.76 -0.4c-2.33,-0.19 -4.66,-0.61 -6.98,-1.25 -2.35,-0.66 -4.69,-1.56 -6.99,-2.72 -0.66,-0.29 -1.28,-0.64 -1.86,-1.03 -4.2,9.27 -8.09,18.48 -11.68,27.61 -5.17,13.2 -9.66,26.14 -13.44,38.82 -4.27,14.3 -7.87,26.5 -10.88,36.89 -3.15,10.84 -6.32,21.96 -9.52,33.39 -0.35,1.43 -0.93,2.72 -1.74,3.82 -1.47,2.01 -3.42,3.2 -5.87,3.48 -1.98,0.23 -3.87,-0.23 -5.69,-1.38 -1.26,-0.77 -2.44,-1.9 -3.57,-3.37 -1.36,-1.77 -2.55,-3.91 -3.61,-6.42 -0.94,-2.28 -1.82,-4.95 -2.61,-7.99 -0.82,-3.08 -1.42,-6.27 -1.81,-9.56 -0.39,-3.31 -0.6,-6.75 -0.6,-10.27 0,-2.84 0.17,-5.6 0.49,-8.27 0.31,-2.55 0.8,-5.07 1.43,-7.52 1.57,-6.72 3.58,-14.03 6.01,-21.88 2.43,-7.85 5.22,-16 8.33,-24.43 3.08,-8.35 6.46,-17.04 10.07,-26.05 3.39,-8.43 7.15,-17.37 11.23,-26.8l4.62 -10.57c-5.32,4.52 -10.55,8.08 -15.71,10.65 -6.78,3.4 -13.38,5.09 -19.78,5.09 -3.97,0 -7.49,-0.64 -10.56,-1.92 -3.44,-1.43 -6.21,-3.62 -8.33,-6.56 -1.82,-2.51 -3.16,-5.31 -4.03,-8.35 -0.83,-2.92 -1.25,-6.09 -1.25,-9.47 0,-4.17 0.55,-8.71 1.64,-13.62 1.06,-4.75 2.61,-9.74 4.65,-14.93 1.99,-5.08 4.2,-10.07 6.62,-14.95 2.4,-4.84 5.01,-9.57 7.83,-14.17 3.59,-5.15 7.08,-10.42 10.57,-15.64l5.24 -8.28c1.39,-2.23 2.89,-4.74 4.49,-7.5l-5.43 5.19c-3.69,3.62 -7.67,7.71 -11.94,12.26 -4.2,4.49 -8.42,9.19 -12.63,14.1 -4.38,5.12 -8.64,10.28 -12.76,15.48 -4.26,5.4 -8.26,10.87 -11.97,16.43 -3.69,5.52 -7.18,11.21 -10.44,17.04 -0.84,1.72 -1.9,3.47 -3.14,5.24 -1.24,1.74 -2.56,3.4 -3.97,4.97 -2.03,2.25 -4.44,3.97 -7.19,5.11 -2.65,1.11 -5.53,1.66 -8.64,1.66l-1.28 0c-1.54,0 -3.16,-0.26 -4.84,-0.75 -1.49,-0.43 -2.97,-1.05 -4.45,-1.84 -2.65,-1.41 -4.59,-3.6 -5.82,-6.54 -0.92,-2.22 -1.39,-4.82 -1.39,-7.79 0,-4.22 0.66,-8.77 1.98,-13.61 1.25,-4.6 3.12,-9.53 5.59,-14.77 2.23,-4.76 4.75,-9.76 7.54,-14.99 2.8,-5.27 5.66,-10.38 8.57,-15.28 3.1,-5.24 5.85,-10.01 8.21,-14.26 1.99,-3.56 3.88,-7.03 5.65,-10.4 -2.6,2.25 -5.41,4.84 -8.39,7.75 -3.92,3.81 -7.94,7.95 -12.05,12.39 -4.08,4.41 -8.39,9.25 -12.89,14.44 -4.38,5.05 -8.73,10.23 -13.02,15.49 -4.24,5.2 -8.42,10.49 -12.54,15.87 -4.06,5.31 -7.9,10.5 -11.48,15.54 -3.64,5.09 -6.83,9.84 -9.58,14.2 -2.69,4.26 -4.98,8.22 -6.87,11.86 -0.92,1.99 -2.06,3.67 -3.39,5 -1.75,1.79 -3.82,2.94 -6.15,3.48 -1.21,0.28 -2.66,0.52 -4.34,0.72l-3.44 0.35 -1.54 2.23c0.59,1.31 1.04,2.74 1.37,4.28l0.14 1.06c0.06,0.98 0.04,2.03 -0.07,3.11l0 0.06c-0.11,1 -0.3,2.04 -0.56,3.06 -0.38,1.54 -0.96,2.9 -1.72,4.05 -1.2,1.83 -2.82,3.1 -4.77,3.79l-2.9 1.03 -2.81 -1.33c-0.65,-0.3 -1.3,-0.67 -1.93,-1.09l-0.68 -0.48c-0.68,-0.02 -1.35,0.05 -2.02,0.1 -0.71,0.1 -1.47,0.27 -2.27,0.49l-3.31 1 -3.56 1.21c-2.47,0.89 -4.82,1.8 -7.12,2.75 -2.66,1.12 -5.25,2.26 -7.71,3.41 -2.51,1.17 -5.15,2.46 -7.86,3.83 -2.37,1.2 -4.85,2.51 -7.4,3.92 -4.81,2.64 -8.96,5.03 -12.42,7.12l-4.08 2.48 -1.67 1.13 -0.99 0.77c-0.87,0.3 -1.98,0.95 -2.82,1.37l-1.21 0.15c-2.67,0.32 -5.32,-0.34 -7.93,-1.98l-5.11 -4.49 -1.51 -1.83c-1.27,-1.72 -2.05,-3.39 -2.33,-5.05l-0.73 -4.17 3.2 -2.78c1.74,-1.52 3.37,-3.08 4.86,-4.66 1.55,-1.64 3.09,-3.43 4.59,-5.35 1.78,-2.26 3.3,-4.28 4.56,-6.06 1.63,-2.35 3.1,-4.54 4.41,-6.58 1.5,-2.32 3.27,-5.17 5.3,-8.57 1.86,-3.1 3.88,-6.57 6.03,-10.37 2.1,-3.69 4.2,-7.58 6.28,-11.64 2.04,-3.97 4.09,-8.18 6.16,-12.6 1.99,-4.33 3.87,-8.67 5.59,-13.03 1.7,-4.22 3.29,-8.63 4.78,-13.2 1.45,-4.43 2.63,-8.68 3.52,-12.72 0.89,-4.05 1.55,-8.04 1.95,-11.95 0.39,-3.69 0.43,-7.12 0.13,-10.26 -0.29,-3 -0.9,-5.81 -1.84,-8.45 -0.26,-0.73 -0.51,-1.3 -0.74,-1.68l-0.26 -0.01c-0.22,0.01 -0.54,0.09 -0.93,0.22 -3.47,1.24 -6.44,3.41 -8.88,6.49 -1.46,1.87 -2.79,3.82 -3.99,5.84 -1.24,2.1 -2.31,4.22 -3.21,6.33 -0.93,2.19 -1.72,4.37 -2.35,6.51 -0.63,2.16 -1.09,4.12 -1.36,5.9 -0.3,1.88 -0.47,3.53 -0.51,4.91 -0.04,1.08 0,1.92 0.12,2.48l1.59 7.68 -7.78 1.24c-2.61,0.42 -5.2,-0.07 -7.74,-1.47 -1.73,-0.95 -3.49,-2.41 -5.28,-4.34 -1.62,-1.73 -2.97,-3.58 -4.05,-5.54 -1.12,-2 -1.95,-4.11 -2.47,-6.29l-0.35 -1.45 0.23 -1.49c0.57,-3.62 1.61,-7.23 3.11,-10.8 1.47,-3.48 3.37,-6.92 5.69,-10.27 2.27,-3.27 4.73,-6.35 7.37,-9.19 2.65,-2.85 5.54,-5.53 8.63,-8.03 6.28,-5.06 12.6,-8.73 18.95,-10.99 3.34,-1.21 6.64,-1.9 9.85,-2.06 3.36,-0.18 6.58,0.23 9.61,1.22 3.52,1.14 6.6,3.3 9.21,6.43 2.28,2.74 4.16,6.17 5.62,10.27 1.4,3.98 2.28,8.2 2.63,12.68 0.32,4.31 0.16,8.9 -0.52,13.77 -0.64,4.66 -1.6,9.37 -2.87,14.11 -1.23,4.6 -2.83,9.45 -4.78,14.53 -1.85,4.84 -3.89,9.65 -6.08,14.46 -2.22,4.87 -4.58,9.65 -7.04,14.29 -2.43,4.59 -4.98,9.16 -7.64,13.71 -2.62,4.48 -5.26,8.76 -7.89,12.8l-2.03 3.11 1.84 -0.88c2.68,-1.24 5.33,-2.33 7.94,-3.26 2.36,-0.84 4.64,-1.5 6.83,-1.97 1.79,-0.4 3.58,-0.66 5.35,-0.78l0.54 -1.01zm19.79 10.35l0.63 -1.47 -1.4 0.07c0.27,0.45 0.53,0.91 0.77,1.4zm243.64 -13.04c3.51,0 7.12,-0.74 10.83,-2.21 4.02,-1.59 8.22,-4.05 12.6,-7.34 4.59,-3.49 9.07,-7.48 13.39,-11.96 4.39,-4.56 8.67,-9.67 12.79,-15.28 4.21,-5.73 8.02,-11.61 11.41,-17.62 3.44,-6.16 6.54,-12.49 9.25,-19l0.06 -0.12c1.45,-3.31 2.9,-6.97 4.32,-10.97 1.48,-4.14 2.85,-8.37 4.1,-12.65 1.28,-4.37 2.24,-8.31 2.86,-11.77 0.56,-3.07 0.85,-5.84 0.87,-8.27 -1.79,1.12 -3.87,2.83 -6.21,5.12 -2.79,2.72 -6.06,6.12 -9.8,10.18 -3.81,4.13 -7.99,8.81 -12.52,14.03 -1.5,1.77 -3.2,3.9 -5.06,6.35 -1.74,2.27 -3.84,5.12 -6.29,8.54l-7.12 9.99 -7.3 10.55 -7.03 10.42 -6.29 9.64c-3.78,5.94 -6.71,10.7 -8.78,14.24l-2.37 4.6 -2.61 5.57c-0.71,1.61 -1.27,3.14 -1.64,4.6 -0.3,1.2 -0.45,2.28 -0.45,3.22 0,0.33 -0.62,-0.05 -0.38,0.17l1.37 -0.03zm84.17 -118.12c1.14,-0.22 2.25,-0.33 1.15,-0.33 -0.28,0 -0.66,0.11 -1.15,0.33zm-708.14 273.42c5.62,0 11.37,-2.4 17.21,-7.22 3.25,-2.67 6.51,-5.85 9.76,-9.5 3.26,-3.66 6.42,-7.72 9.48,-12.19 3.23,-4.71 6.33,-9.51 9.26,-14.39 2.95,-4.91 5.84,-10.04 8.65,-15.37 2.79,-5.32 5.44,-10.55 7.93,-15.66 2.43,-5.01 4.77,-10.03 6.97,-15.02l0.24 -0.53c-7.44,5.33 -15.41,11.34 -23.89,18.02 -4.54,3.57 -9.01,7.3 -13.38,11.15 -4.51,3.96 -8.74,7.89 -12.67,11.75 -3.96,3.89 -7.6,7.83 -10.9,11.78 -3.26,3.9 -6.11,7.74 -8.54,11.49 -2.29,3.52 -4,6.89 -5.12,10.08 -1.03,2.9 -1.54,5.65 -1.54,8.22 0,2.03 0.62,4.07 1.87,6.11 0.17,0.28 0.47,0.53 0.88,0.71 0.87,0.38 2.14,0.57 3.79,0.57z"/>
  </g>
 </g>
</svg>
